<svg xmlns="http://www.w3.org/2000/svg" version="1.1" xmlns:xlink="http://www.w3.org/1999/xlink" xmlns:svgjs="http://svgjs.dev/svgjs" width="1440" height="500" preserveAspectRatio="none" viewBox="0 0 1440 500"><g mask="url(&quot;#SvgjsMask1516&quot;)" fill="none"><rect width="1440" height="500" x="0" y="0" fill="url(&quot;#SvgjsLinearGradient1517&quot;)"></rect><path d="M604.14 361.01L611.3 361.01L611.3 368.17L604.14 368.17z" stroke="rgba(97, 64, 127, 1)"></path><path d="M922.29 276.09 a21.17 21.17 0 1 0 42.34 0 a21.17 21.17 0 1 0 -42.34 0z" fill="rgba(212, 154, 106, 1)"></path><path d="M762.15 13.16L766.54 13.16L766.54 26.9L762.15 26.9z" fill="rgba(64, 127, 127, 1)"></path><path d="M1117.27 165.15L1122.19 165.15L1122.19 170.07L1117.27 170.07z" stroke="rgba(64, 127, 127, 1)"></path><path d="M1191.12 77.31a5.86 5.86 0 1 0 9.65 6.65z" fill="rgba(97, 64, 127, 1)"></path><path d="M1287.55-1.64a45.25 45.25 0 1 0 27.28 86.29z" stroke="rgba(212, 154, 106, 1)"></path><path d="M953.13 405.92a5.46 5.46 0 1 0-10.65-2.39z" fill="rgba(97, 64, 127, 1)"></path><path d="M819.78 148.93L864.9 148.93L864.9 198.54L819.78 198.54z" stroke="rgba(212, 154, 106, 1)"></path><path d="M1131.04 278.11 a29.48 29.48 0 1 0 58.96 0 a29.48 29.48 0 1 0 -58.96 0z" fill="rgba(97, 64, 127, 1)"></path><path d="M1227.79 399.11L1247.08 399.11L1247.08 418.4L1227.79 418.4z" stroke="rgba(97, 64, 127, 1)"></path><path d="M486.76 374.27 a9.48 9.48 0 1 0 18.96 0 a9.48 9.48 0 1 0 -18.96 0z" fill="rgba(212, 154, 106, 1)"></path><path d="M1376.64 160.3a1.05 1.05 0 1 0-0.97-1.86z" fill="rgba(64, 127, 127, 1)"></path><path d="M943.06 492.68L947.72 492.68L947.72 531.63L943.06 531.63z" fill="rgba(212, 154, 106, 1)"></path><path d="M181.59 410.94a16.82 16.82 0 1 0-9.29 32.33z" fill="rgba(64, 127, 127, 1)"></path><path d="M444.35 7.65L450.61 7.65L450.61 13.91L444.35 13.91z" fill="rgba(97, 64, 127, 1)"></path><path d="M503.51 268.4a48.08 48.08 0 1 0 92.72-25.49z" stroke="rgba(212, 154, 106, 1)"></path><path d="M358.76 35.39a2.2 2.2 0 1 0-0.85 4.32z" fill="rgba(212, 154, 106, 1)"></path><path d="M637.63 280.43L676.66 280.43L676.66 310.7L637.63 310.7z" stroke="rgba(212, 154, 106, 1)"></path><path d="M930.21 112.47a1.77 1.77 0 1 0 3.1 1.72z" fill="rgba(97, 64, 127, 1)"></path><path d="M1191.59 369.74L1236.22 369.74L1236.22 386.46L1191.59 386.46z" fill="rgba(97, 64, 127, 1)"></path><path d="M576.08 169.69L624.73 169.69L624.73 207.53L576.08 207.53z" stroke="rgba(64, 127, 127, 1)"></path><path d="M831.24 284.5L848.59 284.5L848.59 288.5L831.24 288.5z" fill="rgba(97, 64, 127, 1)"></path><path d="M334.94 112.88L334.97 112.88L334.97 112.91L334.94 112.91z" fill="rgba(212, 154, 106, 1)"></path><path d="M258.63 256.26 a29.77 29.77 0 1 0 59.54 0 a29.77 29.77 0 1 0 -59.54 0z" stroke="rgba(212, 154, 106, 1)"></path><path d="M112.97 380.51L122.24 380.51L122.24 389.78L112.97 389.78z" stroke="rgba(64, 127, 127, 1)"></path><path d="M472.36 482.76 a13.41 13.41 0 1 0 26.82 0 a13.41 13.41 0 1 0 -26.82 0z" stroke="rgba(64, 127, 127, 1)"></path><path d="M842.81 260.54L853.8 260.54L853.8 271.74L842.81 271.74z" fill="rgba(64, 127, 127, 1)"></path><path d="M441 71.93a13.81 13.81 0 1 0 13.64 24.02z" stroke="rgba(97, 64, 127, 1)"></path><path d="M415.09 326.09L435.93 326.09L435.93 346.93L415.09 346.93z" stroke="rgba(97, 64, 127, 1)"></path><path d="M286.39 58.19 a31.91 31.91 0 1 0 63.82 0 a31.91 31.91 0 1 0 -63.82 0z" fill="rgba(97, 64, 127, 1)"></path><path d="M981.82 363.63L1019.46 363.63L1019.46 395.42L981.82 395.42z" fill="rgba(64, 127, 127, 1)"></path><path d="M55.74 473.15 a30.54 30.54 0 1 0 61.08 0 a30.54 30.54 0 1 0 -61.08 0z" stroke="rgba(64, 127, 127, 1)"></path><path d="M1230.64 112.03L1270.7 112.03L1270.7 152.09L1230.64 152.09z" stroke="rgba(97, 64, 127, 1)"></path><path d="M650.41 11.5L655.75 11.5L655.75 16.84L650.41 16.84z" stroke="rgba(64, 127, 127, 1)"></path><path d="M900.25 68.88a20.53 20.53 0 1 0 39.14-12.42z" stroke="rgba(212, 154, 106, 1)"></path><path d="M915.74 226.89L924.85 226.89L924.85 236L915.74 236z" stroke="rgba(64, 127, 127, 1)"></path></g><defs><mask id="SvgjsMask1516"><rect width="1440" height="500" fill="#ffffff"></rect></mask><linearGradient x1="0%" y1="50%" x2="100%" y2="50%" gradientUnits="userSpaceOnUse" id="SvgjsLinearGradient1517"><stop stop-color="#0e2a47" offset="0"></stop><stop stop-color="rgba(0, 123, 158, 1)" offset="1"></stop></linearGradient></defs></svg>